# xmcd
#
# Track frame offsets:
#	150
#	18512
#	32605
#	51907
#	65827
#	80157
#	101537
#	116277
#	129640
#	144242
#	161162
#	176055
#	191982
#	209510
#
# Disc length: 3105
#
# Revision: 1
# Processed by: cddbd v1.5.1PL0 Copyright (c) Steve Scherf et al.
# Submitted via: VisiTrax 2.9.3.171 - For more info visit www.synapsa.com
# Normalized: r0:DSETVAR1
#
DISCID=d00c1f0e
DTITLE=Various Artist - Mr Music Country 8-99
DYEAR=1900
DGENRE=
TTITLE0=Alan jackson - Chattahoochee
TTITLE1=Brooks and Dunn - Way Gone
TTITLE2=Lorrie Morgan - Strong Enough To Cry
TTITLE3=Clay Walker - One, Two, I Love You
TTITLE4=Regina and Regina - The Big Bad Broken Heart
TTITLE5=Blackhawk - Think Again
TTITLE6=Don Williams - Something 'bout You
TTITLE7=The Tractors - How Long Will It Take
TTITLE8=Darrell McCall - Long Line Of Empties
TTITLE9=BR5-49 - Goodbye Maria
TTITLE10=Daryle Singletary - The Note
TTITLE11=Julian Austin - Diamond
TTITLE12=The Wilkinsons - Williamstoown
TTITLE13=Andy Griggs - Ain't Livin' Long Like This
EXTD=
EXTT0=
EXTT1=
EXTT2=
EXTT3=
EXTT4=
EXTT5=
EXTT6=
EXTT7=
EXTT8=
EXTT9=
EXTT10=
EXTT11=
EXTT12=
EXTT13=
PLAYORDER=
